Coordinates
version=1
nRows=10
nColumns=33
inDegrees=yes

Units are S.I. units (second, meters, Newtons, ...)
Angles are in degrees.

endheader
time	ground_thorax_rot_x	ground_thorax_rot_y	ground_thorax_rot_z	ground_thorax_tx	ground_thorax_ty	ground_thorax_tz	clav_prot_r	clav_elev_r	scapula_abduction_r	scapula_elevation_r	scapula_upward_rot_r	scapula_winging_r	shoulder_elv_r	plane_of_elev_r	axial_rot_r	elbow_flexion_r	pro_sup_r	wrist_flex_r	wrist_dev_r	clav_prot_l	clav_elev_l	scapula_abduction_l	scapula_elevation_l	scapula_upward_rot_l	scapula_winging_l	shoulder_elv_l	plane_of_elev_l	axial_rot_l	elbow_flexion_l	pro_sup_l	wrist_flex_l	wrist_dev_l
     11.13000000	     90.00000000	    -90.00000000	    -90.00000000	     36.03092864	    778.80583333	    -44.53788576	    -45.00000000	     -4.34398464	    -42.40366883	     11.72649961	    -45.00000000	  -2636.37446303	  -1691.86003572	     30.75509347	    -45.28857475	   1080.55771936	    168.56984495	      2.98467098	     11.73307593	     20.86775326	     45.00000000	    -45.00000000	    -45.00000000	      2.69028250	  -4281.03129340	  -2576.00580712	    139.72536800	   -179.99999979	   1068.09671392	    416.76644342	      6.21900999	     -7.94034578
     11.14000000	     90.00000000	    -90.00000000	    -90.00000000	     35.82622768	    778.30594190	    -44.41604545	    -45.00000000	     -5.10233282	    -42.34475475	     11.66551309	    -45.00000000	  -2636.44328458	  -1691.86878189	     30.94112581	    -44.63726392	   1080.46840528	    168.87207668	      3.11335753	     11.82743796	     20.95960095	     45.00000000	    -45.00000000	    -45.00000000	      2.64347842	  -4281.00225662	  -2575.77337696	    139.71527238	   -179.99999979	   1068.29716037	    416.77556993	      6.72127814	     -7.55355543
     11.15000000	     90.00000000	    -90.00000000	    -90.00000000	     35.49847175	    777.83866770	    -44.31487989	    -45.00000000	     -4.79514653	    -42.32569530	     11.63107967	    -45.00000000	  -2636.57706282	  -1691.81393752	     31.01965254	    -44.93812430	   1080.56977597	    168.93297729	      3.29951406	     11.55243120	     20.75615916	     45.00000000	    -45.00000000	    -45.00000000	      2.99764794	  -4281.01647796	  -2575.92720416	    139.63294694	   -179.99999979	   1068.01432186	    416.79886128	      6.07525031	     -8.08835333
     11.16000000	     90.00000000	    -90.00000000	    -90.00000000	     35.05972803	    777.43066197	    -44.22367909	    -45.00000000	     -5.34068960	    -42.21796799	     11.49480577	    -45.00000000	  -2636.50658113	  -1691.72689233	     30.93653832	    -44.53965972	   1080.54040769	    169.14018218	      3.21715694	     11.86574244	     20.71644750	     45.00000000	    -45.00000000	    -45.00000000	      2.83490727	  -4280.97301532	  -2575.60883708	    139.67282952	   -179.99999979	   1068.35277400	    416.67111364	      6.85305914	     -7.45367586
     11.17000000	     90.00000000	    -90.00000000	    -90.00000000	     34.51498737	    777.08507293	    -44.14493605	    -45.00000000	     -5.23620071	    -42.16752262	     11.40462844	    -45.00000000	  -2636.73022022	  -1691.61962676	     31.10288501	    -44.64377412	   1080.60041864	    169.14887579	      3.48694818	     11.48324198	     20.57161257	     45.00000000	    -45.00000000	    -45.00000000	      3.15258050	  -4281.04109081	  -2575.71118119	    139.59248170	   -179.99999979	   1067.92418003	    416.67094469	      6.00728700	     -8.08477183
     11.18000000	     90.00000000	    -90.00000000	    -90.00000000	     33.87416804	    776.80083170	    -44.07670485	    -45.00000000	     -5.61087723	    -42.07670927	     11.24125430	    -45.00000000	  -2636.59564460	  -1691.54841907	     30.96360858	    -44.27593684	   1080.58173007	    169.33339767	      3.37171821	     11.81747370	     20.47474380	     45.00000000	    -45.00000000	    -45.00000000	      3.17900674	  -4280.96149985	  -2575.53908126	    139.56876731	   -179.99999979	   1068.32730928	    416.52688623	      6.87119504	     -7.56767186
     11.19000000	     90.00000000	    -90.00000000	    -90.00000000	     33.14347057	    776.57330583	    -44.02147523	    -45.00000000	     -5.60518071	    -42.01693706	     11.12808774	    -45.00000000	  -2636.80855934	  -1691.40182278	     31.18538935	    -44.28265563	   1080.63956054	    169.35759351	      3.65873832	     11.38758930	     20.34319146	     45.00000000	    -45.00000000	    -45.00000000	      3.34735119	  -4281.07098611	  -2575.55156740	    139.51863112	   -179.99999979	   1067.90650706	    416.59156376	      5.87985338	     -8.18917535
     11.20000000	     90.00000000	    -90.00000000	    -90.00000000	     32.34064879	    776.39733322	    -43.97798519	    -45.00000000	     -5.93190452	    -41.91172032	     10.99901880	    -45.00000000	  -2636.64944227	  -1691.32407908	     31.02415864	    -43.87793161	   1080.62280477	    169.58952573	      3.52299306	     11.74294177	     20.22638294	     45.00000000	    -45.00000000	    -45.00000000	      3.43520603	  -4281.00509950	  -2575.41113671	    139.47092375	   -179.99999979	   1068.33245068	    416.51174800	      6.87612415	     -7.65346376
     11.21000000	     90.00000000	    -90.00000000	    -90.00000000	     31.46958144	    776.26399906	    -43.94853792	    -45.00000000	     -5.94608275	    -41.86069099	     10.91439747	    -45.00000000	  -2636.83090419	  -1691.16868298	     31.25757331	    -43.81355560	   1080.67746816	    169.66754223	      3.81781798	     11.28453598	     20.09875652	     45.00000000	    -45.00000000	    -45.00000000	      3.55853809	  -4281.10549320	  -2575.37914266	    139.44464130	   -179.99999979	   1067.95056445	    416.68820351	      5.82071831	     -8.27899400
     11.22000000	     90.00000000	    -90.00000000	    -90.00000000	     30.53470532	    776.16660549	    -43.93493281	    -45.00000000	     -6.23425640	    -41.76460777	     10.82849801	    -45.00000000	  -2636.66815843	  -1691.11697422	     31.15117382	    -43.40429027	   1080.63566552	    169.94541287	      3.71777976	     11.57587137	     19.97569218	     45.00000000	    -45.00000000	    -45.00000000	      3.65711217	  -4281.10430016	  -2575.25269065	    139.36996527	   -179.99999979	   1068.33469511	    416.72453655	      6.68800153	     -7.84369670
